<?xml version="1.0" standalone="no"?>
<!DOCTYPE svg PUBLIC "-//W3C//DTD SVG 20010904//EN"
 "http://www.w3.org/TR/2001/REC-SVG-20010904/DTD/svg10.dtd">
<svg version="1.0" xmlns="http://www.w3.org/2000/svg"
 width="200.000000pt" height="200.000000pt" viewBox="0 0 200.000000 200.000000"
 preserveAspectRatio="xMidYMid meet">
<metadata>
Created by potrace 1.11, written by Peter Selinger 2001-2013
</metadata>
<g transform="translate(0.000000,200.000000) scale(0.100000,-0.100000)"
fill="#000000" stroke="none">
<path d="M825 1799 c-55 -40 -246 -175 -425 -302 -179 -126 -329 -234 -334
-238 -6 -5 -10 -133 -10 -305 l-1 -296 25 -17 c14 -9 54 -32 90 -51 60 -31
278 -146 465 -245 44 -23 143 -75 220 -115 77 -40 155 -82 173 -92 18 -11 38
-18 45 -15 11 4 216 147 377 263 19 14 114 81 210 150 96 68 200 142 230 164
l55 39 -1 296 c0 168 -4 299 -10 304 -5 5 -49 30 -99 56 -49 27 -121 65 -160
85 -38 20 -128 68 -200 105 -71 37 -143 76 -160 85 -16 10 -102 55 -190 100
-88 45 -164 86 -169 91 -18 16 -31 10 -131 -62z m140 13 c-16 -2 -47 -7 -69
-12 -40 -9 -40 -7 8 28 27 21 29 21 60 4 l31 -17 -30 -3z m83 -37 c63 -19 112
-61 112 -98 0 -120 -276 -161 -366 -54 -47 56 -17 115 73 146 68 23 116 25
181 6z m-297 -146 l-3 -90 40 -38 c92 -88 297 -79 371 15 20 25 22 38 19 116
l-3 87 145 -76 c193 -101 194 -102 139 -101 -65 2 -126 -19 -167 -57 -35 -32
-37 -36 -40 -111 -6 -102 11 -134 86 -171 61 -30 152 -36 230 -14 56 16 112
71 113 114 1 18 2 48 3 67 0 19 -2 45 -6 58 -4 12 -4 22 1 22 4 0 41 -18 81
-40 40 -22 75 -40 78 -40 2 0 20 -9 39 -21 l34 -21 -88 -62 c-48 -34 -191
-136 -318 -226 -384 -273 -424 -300 -440 -300 -9 0 -49 17 -88 39 -40 21 -126
67 -192 101 -66 34 -151 79 -190 100 -85 45 -266 141 -395 208 -52 28 -96 54
-97 59 -2 5 34 36 79 68 46 32 98 70 117 84 31 23 34 24 27 6 -16 -38 -8 -167
12 -195 74 -102 328 -100 393 4 17 26 19 46 17 115 -3 83 -3 84 -41 116 -57
49 -157 69 -252 49 -25 -5 -21 0 30 37 80 57 268 189 269 189 1 0 -1 -41 -3
-91z m147 -85 c102 -16 188 1 240 49 l22 20 0 -33 c0 -63 -92 -120 -195 -120
-102 0 -195 57 -195 119 l0 31 41 -29 c23 -17 61 -33 87 -37z m693 -51 c101
-54 88 -140 -26 -182 -99 -36 -239 -7 -278 58 -22 38 -21 53 5 86 53 68 207
87 299 38z m-975 -24 c51 -13 114 -66 114 -95 0 -41 -37 -82 -95 -103 -96 -36
-201 -22 -261 34 -41 39 -44 72 -9 113 46 54 152 76 251 51z m674 -137 c0 -14
90 -52 136 -58 63 -7 152 12 198 42 l39 26 -6 -38 c-8 -46 -41 -77 -103 -94
-100 -28 -210 -6 -259 52 -25 29 -34 78 -15 78 6 0 10 -4 10 -8z m632 -307 c1
-151 -1 -277 -3 -279 -2 -2 -123 -88 -269 -191 -146 -104 -332 -237 -415 -296
l-150 -107 -3 276 c-2 253 -1 278 15 293 10 9 191 139 403 289 212 150 391
278 399 286 8 7 17 12 19 9 2 -2 4 -128 4 -280z m-1487 219 c78 -26 189 -13
258 32 37 24 37 24 37 3 0 -36 -33 -79 -77 -100 -122 -59 -313 -3 -313 92 l0
30 33 -23 c17 -13 46 -28 62 -34z m-200 -99 c72 -37 168 -88 215 -113 164 -87
246 -130 375 -198 72 -37 153 -80 180 -95 l50 -28 3 -280 c1 -155 -1 -281 -5
-281 -5 0 -21 8 -38 18 -16 10 -97 54 -180 97 -82 43 -172 90 -200 105 -27 15
-106 57 -175 93 -209 110 -344 181 -363 193 -17 10 -19 28 -19 250 1 341 0
328 15 317 6 -6 70 -40 142 -78z"/>
<path d="M949 1227 c-51 -14 -104 -49 -119 -77 -6 -10 -10 -55 -10 -99 0 -75
2 -82 30 -115 78 -89 271 -92 361 -6 39 37 39 37 39 115 0 95 -20 133 -84 164
-57 26 -157 35 -217 18z m209 -39 c57 -27 81 -73 62 -117 -19 -46 -100 -83
-184 -83 -122 -1 -216 68 -190 139 28 80 202 114 312 61z m-288 -172 c18 -22
90 -47 145 -50 61 -3 140 16 177 44 35 26 38 25 38 -4 0 -61 -93 -116 -195
-116 -102 0 -195 55 -195 116 0 27 12 31 30 10z"/>
</g>
</svg>
